<svg width="51" height="50" viewBox="0 0 51 50" fill="none" xmlns="http://www.w3.org/2000/svg">
<path d="M50.5013 25.0048C50.5051 28.4591 49.7887 31.8762 48.3981 35.0383L44.8853 35.6087C46.9463 31.8487 47.8666 27.5696 47.5339 23.2949C47.2011 19.0202 45.6297 14.935 43.0117 11.5391C43.1181 11.0556 43.21 10.5964 43.297 10.1444C43.442 9.34916 43.5387 8.57326 43.604 7.78287C48.0364 12.4207 50.5072 18.5901 50.5013 25.0048Z" fill="#F8F0F0"/>
<path d="M39.9938 45.3376C39.5297 45.2023 39.0534 45.0403 38.5699 44.8542C38.1347 44.6971 37.7576 44.523 37.4264 44.3708L37.1556 44.2451L36.7398 44.03C33.5532 45.9103 29.9453 46.9605 26.2472 47.0843C22.5491 47.2081 18.879 46.4015 15.5737 44.7385C12.2685 43.0755 9.43375 40.6093 7.32962 37.5661C5.22548 34.523 3.9193 31.0003 3.53088 27.3212C3.14246 23.6421 3.68424 19.9244 5.10651 16.5091C6.52879 13.0938 8.78603 10.0902 11.6712 7.77384C14.5564 5.4575 17.9771 3.90256 21.6196 3.25166C25.262 2.60076 29.0097 2.87472 32.5187 4.04843C32.7001 3.80672 32.8838 3.54809 33.0699 3.30396C33.4132 2.86162 33.7154 2.49906 34.037 2.15824C34.182 2.00113 34.3367 1.8416 34.5036 1.67482C31.0783 0.353855 27.4041 -0.196803 23.742 0.0619587C20.08 0.32072 16.5198 1.38255 13.3144 3.17204C10.109 4.96152 7.33705 7.43474 5.19543 10.416C3.0538 13.3973 1.59506 16.8136 0.922797 20.4221C0.250538 24.0306 0.38126 27.7428 1.30568 31.2951C2.2301 34.8474 3.92553 38.1526 6.27156 40.9759C8.61758 43.7992 11.5566 46.0714 14.88 47.6311C18.2033 49.1907 21.8293 49.9996 25.5006 50.0002C30.7112 50.0064 35.7921 48.3753 40.0253 45.3376H39.9938Z" fill="#F8F0F0"/>
<path d="M49.9077 35.5362C50.1834 36.3574 50.2294 37.2384 50.0407 38.0838C49.8243 38.9825 49.4115 39.822 48.8319 40.5421C48.5247 40.9318 48.1735 41.2846 47.7851 41.5935C47.6836 41.6708 47.5893 41.7506 47.4805 41.8231L47.1493 42.0382C46.9175 42.1802 46.675 42.3039 46.424 42.4081C45.941 42.6076 45.4376 42.7535 44.9227 42.8431C44.4427 42.9167 43.9578 42.9531 43.4722 42.9519C42.567 42.9339 41.6681 42.7974 40.7984 42.5458C40.3825 42.4226 39.974 42.28 39.5896 42.1277C39.2052 41.9754 38.8184 41.8014 38.4388 41.6273L37.3268 41.0521C36.9641 40.8514 36.616 40.6363 36.2606 40.426C35.5695 40.004 34.9028 39.5432 34.2637 39.0459L33.7802 38.6809L33.3209 38.3062C33.0163 38.0645 32.7068 37.8107 32.4167 37.5545C31.8292 37.0397 31.2684 36.5127 30.7099 35.9906L29.8855 35.2051L29.0805 34.4171C28.5462 33.895 28.0168 33.3729 27.4825 32.8701C26.4395 31.8597 25.3445 30.9045 24.2019 30.0083L23.3364 29.3726C23.0438 29.1695 22.7441 28.9786 22.4419 28.7876C21.8489 28.4123 21.2282 28.0826 20.5852 27.8014C19.3479 27.2283 17.9853 26.9788 16.6252 27.0763L16.3835 27.1053C16.2989 27.1053 16.2239 27.1367 16.1417 27.1512C15.9822 27.1802 15.8274 27.231 15.6727 27.2745C15.362 27.3797 15.0644 27.52 14.7855 27.6927C14.5106 27.8604 14.2559 28.0591 14.0264 28.2849C13.9131 28.398 13.8074 28.5183 13.7097 28.645L13.567 28.8335L13.4437 29.0317C13.3998 29.095 13.3618 29.1622 13.3301 29.2324L13.2262 29.433L13.1415 29.6409C13.1116 29.708 13.0874 29.7775 13.069 29.8487C12.9795 30.1165 12.929 30.3957 12.9191 30.6778C12.9099 31.2206 13.0559 31.7548 13.3398 32.2175C13.6492 32.6867 14.0567 33.0834 14.5341 33.3801C14.6519 33.4573 14.7747 33.5268 14.9015 33.588C14.9668 33.6194 15.0272 33.6557 15.0925 33.6823L15.2883 33.7596C15.4155 33.8139 15.5454 33.8615 15.6776 33.9022L16.074 34.0038C16.2032 34.0321 16.334 34.0523 16.4657 34.0642L16.6615 34.0835H16.8718C17.0136 34.0907 17.1556 34.0907 17.2973 34.0835C17.44 34.0714 17.5826 34.0545 17.7228 34.0328C18.3121 33.9301 18.8825 33.7394 19.4151 33.4672C19.9735 33.1798 20.496 32.8277 20.972 32.4181C21.2142 32.2091 21.445 31.9872 21.6634 31.7534C21.7698 31.6446 21.8858 31.5117 21.997 31.3812C22.1083 31.2507 22.217 31.1201 22.3258 30.9896C23.1764 29.9223 23.876 28.7429 24.4049 27.4848C24.9851 26.1892 25.4807 24.78 26.0561 23.3757C27.1851 20.5791 28.331 17.7849 29.6317 15.0366C30.2772 13.6589 30.9541 12.2884 31.6914 10.9275C31.8752 10.5891 32.0621 10.2532 32.2523 9.9196C32.4433 9.57879 32.6343 9.26698 32.8277 8.93825C33.2169 8.28805 33.611 7.63301 34.0365 6.98281C34.462 6.3326 34.8995 5.69207 35.3903 5.04911C35.632 4.73005 35.8956 4.41341 36.1857 4.09677C36.5038 3.74372 36.8606 3.42751 37.2494 3.15409C37.5303 2.95582 37.8448 2.81005 38.1777 2.72385L38.3518 2.69001C38.4123 2.67815 38.4738 2.67168 38.5355 2.67067C38.6032 2.67067 38.6709 2.67067 38.7386 2.67067H38.8401L38.9514 2.69001C39.239 2.73624 39.5111 2.85153 39.7443 3.02599C39.8424 3.09922 39.9345 3.18004 40.0199 3.2677C40.0873 3.34461 40.1503 3.42531 40.2085 3.50941C40.3044 3.65135 40.3854 3.80282 40.4502 3.96141C40.5508 4.20736 40.6246 4.46344 40.6702 4.72522C40.7469 5.15694 40.7865 5.59442 40.7887 6.03288C40.7887 6.44862 40.7887 6.84986 40.7548 7.24144C40.7 8.0285 40.6023 8.812 40.4623 9.58846C40.3173 10.3474 40.1601 11.1233 39.9353 11.8847L39.7588 12.4527L39.5388 13.057L39.3237 13.6105C39.2511 13.7967 39.1665 13.9755 39.0819 14.1592C38.7523 14.8844 38.365 15.5819 37.9239 16.2452C37.8151 16.412 37.6821 16.5715 37.5806 16.7286L37.4065 16.9703L37.2204 17.212C37.0923 17.3667 36.9786 17.5239 36.8408 17.6737L36.4323 18.1136C36.2978 18.2618 36.1557 18.403 36.0068 18.5366L35.5716 18.9427C35.2839 19.2037 34.9841 19.46 34.6771 19.7041C34.0589 20.1927 33.4132 20.6455 32.7431 21.0601C32.0637 21.4869 31.3487 21.854 30.606 22.1575C29.8392 22.4883 29.0332 22.7198 28.2077 22.8463C27.3376 22.9884 26.4494 22.9794 25.5823 22.8198C24.6907 22.6536 23.837 22.3259 23.0632 21.8529C22.2977 21.376 21.6138 20.7795 21.0373 20.086C20.455 19.4016 19.9739 18.6372 19.6085 17.8163C19.2316 16.9952 18.9712 16.1255 18.8349 15.2324C18.6933 14.3096 18.6933 13.3707 18.8349 12.4479C18.8681 12.2132 18.9248 11.9824 19.0041 11.759C19.0696 11.5331 19.1504 11.3118 19.2459 11.0967C19.3361 10.8804 19.4378 10.669 19.5505 10.4635C19.652 10.2532 19.7777 10.0598 19.8962 9.86159C20.8632 8.28805 22.263 7.152 23.6458 6.31326C24.3575 5.8485 25.1456 5.51301 25.9739 5.32225C26.7975 5.13494 27.6526 5.13494 28.4761 5.32225L28.58 5.80567C27.8611 5.94313 27.1668 6.18756 26.5203 6.5308C26.2013 6.70569 25.8966 6.90531 25.6089 7.12783L25.181 7.45656C25.0407 7.57016 24.9005 7.67894 24.7627 7.79254C24.2046 8.24044 23.6905 8.74064 23.2276 9.28632C23.0033 9.55347 22.7927 9.83179 22.5966 10.1202C22.5047 10.2677 22.408 10.4103 22.3234 10.5601C22.2388 10.71 22.1494 10.8574 22.0817 11.0146C22.014 11.1717 21.9318 11.3215 21.8762 11.4811C21.8094 11.6386 21.7521 11.8001 21.7045 11.9645L21.6296 12.2062C21.6054 12.286 21.5933 12.3706 21.5691 12.4479L21.5087 12.6896C21.4894 12.7694 21.4797 12.854 21.4603 12.9313C21.3218 13.5946 21.2811 14.2746 21.3395 14.9496C21.4467 16.3343 21.9271 17.6641 22.7296 18.7977C23.5121 19.9375 24.6654 20.7711 25.9933 21.1568C27.3229 21.5097 28.7807 21.3405 30.1345 20.8619C31.4995 20.3481 32.7747 19.6221 33.9132 18.7107C35.0693 17.8335 36.0605 16.7581 36.8408 15.5346C37.2175 14.9186 37.541 14.2717 37.8078 13.6009C38.0799 12.9353 38.2927 12.2469 38.4437 11.5439C38.5892 10.8339 38.6965 10.1166 38.7652 9.39509C38.8344 8.67779 38.8627 7.95712 38.8498 7.2366C38.8498 6.87887 38.8256 6.52597 38.7894 6.18274C38.7604 5.85626 38.7038 5.53282 38.6201 5.21589C38.5892 5.09329 38.5438 4.97482 38.4848 4.86299C38.4437 4.7784 38.3856 4.74456 38.4509 4.81223C38.4996 4.85194 38.5566 4.88004 38.6177 4.89442C38.6321 4.89149 38.6469 4.89149 38.6612 4.89442H38.6854C38.7072 4.89442 38.7072 4.89442 38.7193 4.89442C38.7314 4.89442 38.6516 4.94034 38.567 5.01286C38.3436 5.21332 38.1404 5.43514 37.9602 5.67515C37.7522 5.93378 37.5516 6.21658 37.3558 6.50905C36.9593 7.09399 36.5942 7.71761 36.2268 8.35331C35.8593 8.98901 35.5015 9.63438 35.1534 10.287C34.8052 10.9396 34.4474 11.5898 34.1138 12.2425C33.4466 13.5477 32.8228 14.8844 32.2281 16.2404C31.0484 18.9572 29.9218 21.7175 28.8436 24.4996L28.4398 25.5438L28.0482 26.5929C27.7653 27.2987 27.4728 28.0117 27.1489 28.7272C26.8207 29.4607 26.451 30.1749 26.0416 30.8663C25.6178 31.5724 25.1401 32.2448 24.6128 32.8774C24.4799 33.0321 24.3517 33.1916 24.2164 33.3415C24.081 33.4913 23.9504 33.6412 23.7981 33.7983C23.5033 34.1067 23.1926 34.3996 22.8674 34.6757C22.2052 35.2326 21.4798 35.7097 20.7061 36.097C19.1371 36.8632 17.2683 37.2765 15.3729 36.7955C15.1312 36.7375 14.9184 36.6553 14.696 36.5756L14.3745 36.4354C14.2659 36.3902 14.1602 36.3385 14.0578 36.2807L13.7532 36.1066C13.6541 36.0462 13.5574 35.9785 13.4607 35.9133C13.267 35.7844 13.0813 35.6439 12.9046 35.4927C12.7257 35.3477 12.5613 35.1785 12.3969 35.0093L12.1673 34.7434C12.0881 34.6563 12.0146 34.5643 11.9473 34.4678L11.7442 34.1826C11.6765 34.0859 11.6209 33.982 11.5605 33.8805C11.4402 33.6767 11.3336 33.4651 11.2413 33.2472C10.8565 32.3883 10.7293 31.4361 10.8752 30.5063C11.0211 29.5765 11.4338 28.7091 12.0633 28.0093L12.2833 27.7676L12.5251 27.5452C12.6774 27.3929 12.8514 27.2672 13.0086 27.1295C13.3439 26.8771 13.6997 26.6531 14.0723 26.4599C14.8058 26.0688 15.6004 25.8048 16.4222 25.6792C17.2231 25.5581 18.0372 25.5524 18.8397 25.6623C19.6267 25.7712 20.4003 25.9607 21.1485 26.2279C21.8867 26.4849 22.6044 26.7977 23.2953 27.1633C23.6337 27.3494 23.9794 27.521 24.3179 27.7072L25.3139 28.2945C26.6066 29.112 27.8557 29.9962 29.0563 30.9437C30.2651 31.8719 31.4207 32.8242 32.5883 33.7475C33.1734 34.2068 33.7584 34.6636 34.3483 35.1011C34.6384 35.3283 34.9382 35.5362 35.2356 35.7513L35.6804 36.0704L36.1325 36.3725C37.3146 37.1804 38.5681 37.8786 39.8773 38.4585C41.1779 39.0096 42.5366 39.4471 43.8106 39.5172C44.3925 39.5608 44.9775 39.5069 45.5416 39.3577C45.6654 39.3262 45.786 39.2833 45.9018 39.2296L46.0807 39.1474C46.1412 39.1208 46.1992 39.0773 46.2596 39.0483C46.507 38.9196 46.7382 38.7622 46.9486 38.5794C47.1738 38.3937 47.381 38.1874 47.5675 37.963L48.1477 37.2185C48.3484 36.9575 48.5611 36.6843 48.8005 36.3967C48.9165 36.2517 49.0422 36.1042 49.18 35.9544C49.2429 35.877 49.3154 35.8021 49.3903 35.7127C49.4656 35.627 49.5464 35.5462 49.6321 35.4709L49.9077 35.5362Z" fill="#F8F0F0"/>
</svg>
