<svg width="1920" height="161" viewBox="0 0 1920 161" fill="none" xmlns="http://www.w3.org/2000/svg">
<path fill-rule="evenodd" clip-rule="evenodd" d="M1920 112.644L1867 115.439C1813 117.955 1707 123.545 1600 123.545C1493 123.545 1387 117.955 1280 115.439C1173 112.644 1067 112.644 960 115.439C853 117.955 747 123.545 640 107.333C533 91.1216 427 53.6668 320 32.1442C213 10.6217 107 5.31089 53 2.79526L1.40751e-05 0.000122065L0 161L53 161C107 161 213 161 320 161C427 161 533 161 640 161C747 161 853 161 960 161C1067 161 1173 161 1280 161C1387 161 1493 161 1600 161C1707 161 1813 161 1867 161L1920 161L1920 112.644Z" fill="#F4F7FA"/>
</svg>
