<svg width="1920" height="740" viewBox="0 0 1920 740" fill="none" xmlns="http://www.w3.org/2000/svg">
<path fill-rule="evenodd" clip-rule="evenodd" d="M0 222.257L53 209.41C107 197.847 213 172.153 320 172.153C427 172.153 533 197.847 640 209.41C747 222.257 853 222.257 960 209.41C1067 197.847 1173 172.153 1280 246.667C1387 321.181 1493 493.333 1600 592.257C1707 691.181 1813 715.59 1867 727.153L1920 740V0H1867C1813 0 1707 0 1600 0C1493 0 1387 0 1280 0C1173 0 1067 0 960 0C853 0 747 0 640 0C533 0 427 0 320 0C213 0 107 0 53 0H0V222.257Z" fill="#F4F7FA"/>
</svg>
