<svg viewBox="0 0 1440 320" fill="none" xmlns="http://www.w3.org/2000/svg">
     <path fill="#F4F7FA" fill-opacity="1" d="M0,224L80,186.7C160,149,320,75,480,64C640,53,800,107,960,117.3C1120,128,1280,96,1360,80L1440,64L1440,0L1360,0C1280,0,1120,0,960,0C800,0,640,0,480,0C320,0,160,0,80,0L0,0Z"></path>
    <!-- <path fill="#F4F7FA" fill-opacity="1" d="M0,32L48,80C96,128,192,224,288,224C384,224,480,128,576,90.7C672,53,768,75,864,96C960,117,1056,139,1152,149.3C1248,160,1344,160,1392,160L1440,160L1440,320L1392,320C1344,320,1248,320,1152,320C1056,320,960,320,864,320C768,320,672,320,576,320C480,320,384,320,288,320C192,320,96,320,48,320L0,320Z"></path> -->
</svg>